Patient4_TMGait_0pt7_02_left_22_EMG.mot
version=1
nRows=19
nColumns=33
inDegrees=no
endheader
time	1LAddLong	2LGlutMax	3LGlutMed	4LIliopsoas	5LSemiMemb	6LBicFemLong	7LRecFem	8LVastMed	9LVastLat	10LGasMed	11LTibAnt	12lTibPost	13LPeroneusLong	14LSol	15LExtDigLong	16LFlexDigLong	17RAddLong	18RGlutMax	19RGlutMed	20RIliopsoas	21RSemiMemb	22RBicFemLong	23RRecFem	24RVastMed	25RVastLat	26RGasMed	27RTibAnt	28RTibPost	29RPeroneusLong	30RSol	31RExtDigLong	32RFlexDigLong
26.19	-0.001373	-0.09201	-0.053101	-0.015869	0.068359	0.013885	-0.045013	0.006866	0.00885	-0.016479	-0.043793	-0.001984	0.007172	-0.091095	0.052795	-0.00946	0.022736	-0.19684	0.09903	0.061493	-0.024719	-0.050812	0.14557	-0.10391	0.007019	0.002899	0.38803	-0.030365	-0.38055	0.22614	-0.007019	-0.012512
26.191	0.007782	-0.050201	-0.031738	-0.011902	0.046539	-0.007172	-0.039978	0.003662	0.018005	-0.024109	0.019684	0.000305	-0.003357	-0.062714	0.099182	0.003815	0.020294	-0.11978	0.20569	0.08194	0.007172	0.005646	0.16937	-0.19836	0.014191	-0.011444	0.78888	0.016479	-0.2713	0.40237	0.001678	-0.008545
26.192	0.015411	-0.044861	-0.080414	0.008087	0.038605	-0.022736	-0.05722	0.00412	0.010071	-0.024414	0.025024	0	0.008087	-0.060577	0.10071	0.005188	0.009155	-0.005035	0.47058	0.001373	-0.032654	0.093994	0.073395	-0.14832	0.009155	-0.007935	0.83618	0.014496	-0.06424	0.057983	0.000916	-0.007935
26.193	0.019226	-0.041809	-0.1091	0.006256	0.028839	-0.017242	-0.04425	0.005493	0.021667	-0.033264	0.023499	-0.002441	0.002899	-0.057983	0.037842	0.014191	0.012512	-0.078125	0.22614	-0.027771	-0.024261	0.074158	0.079041	-0.05249	0.01297	-0.018616	0.22995	-0.024567	0.099335	-0.24124	-0.001221	-0.008698
26.194	0.011444	-0.026398	-0.035248	0.009613	0.03418	0.019379	-0.044861	0.009003	0.014954	-0.03952	0.041199	-0.001678	0.021973	-0.057983	0.028381	-0.003052	-0.001373	-0.052643	-0.045013	-0.02594	-0.040588	0.032959	-0.022278	0.058899	-0.008545	-0.00946	-0.17075	-0.016785	0.12741	-0.17853	-0.000916	-0.007935
26.195	0.004425	-0.056915	0.011902	0.000763	0.017395	0.001831	-0.043793	0.006409	0.014191	-0.028992	0.016632	0.004883	0.003815	-0.058289	0.040741	-0.001221	-0.004578	-0.035095	-0.06073	0.068665	-0.075378	0.055695	-0.056152	0.035095	0.013123	-0.001831	-0.13702	-0.023499	0.14923	0.019989	0.000305	-0.006561
26.196	0.001373	-0.079956	-0.012054	-0.002747	0.024872	0.021667	-0.03891	0.002136	0.009155	-0.02594	-0.014343	0.001221	-0.00412	-0.10407	0.049744	-0.002136	0.013733	-0.076599	0.057678	0.082397	0.067749	0.034485	-0.13321	-0.041046	0.073547	-0.01236	-0.42053	-0.025787	0.16449	0.07843	-0.000458	-0.018158
26.197	0.005646	-0.074463	-0.066223	-0.005951	0.036011	0.016022	-0.028381	0.00412	0.009003	-0.034637	0.003815	0.005188	-0.00824	-0.041962	0.048218	0.009766	0.030212	-0.13519	0.17639	0.082855	0.17654	-0.019684	-0.16708	-0.058289	0.044861	-0.022278	-0.31097	-0.030365	0.16983	-0.079346	-0.00061	-0.015564
26.198	-0.005798	-0.003967	-0.24628	0.004272	0.028839	0.060577	-0.026245	0.009155	0.008392	-0.033417	0.006866	-0.001678	-0.01358	-0.078278	0.035095	0.01297	0.034943	-0.085602	-0.021667	0.07782	0.089264	-0.034332	-0.21088	0.017242	0.065918	-0.038452	0.56976	-0.025787	0.19852	-0.17578	-0.001068	-0.018158
26.199	-0.014954	0.062866	-0.25207	0.016174	0.026245	0.079651	-0.015411	0.009918	0.005951	-0.016632	0.027466	0.004425	-0.014648	-0.059509	0.039825	0.009613	0.036011	-0.064392	0.078888	0.008698	-0.071106	-0.005188	-0.062103	0.074463	0.062561	-0.046997	0.42313	-0.028229	-0.14771	-0.52475	-0.000305	-0.023041
26.2	-0.008392	0.079651	-0.10773	-0.010529	-0.031891	0.032196	-0.015717	0.006256	0.005341	-0.012512	0.021362	0.002899	-0.007477	-0.03067	0.03418	0.00824	0.002289	-0.10468	0.17319	-0.012207	-0.16327	0.068665	-0.048523	0.010681	0.040436	-0.039368	-0.3006	-0.036469	-0.1387	-0.96634	-0.000916	-0.026398
26.201	-0.002899	0.032806	0.16602	0.003662	-0.053253	-0.047302	-0.011292	0.007782	0.010071	-0.018005	0.027313	0.002441	-0.005646	-0.028076	0.026093	0.005493	-0.0177	-0.18662	0.084686	-0.036469	-0.2179	0.011292	-0.031281	0.041046	0.025024	-0.063019	-0.54184	-0.028076	-0.10208	-1.0432	-0.010376	-0.035553
26.202	0.005798	0.014954	0.37766	0.007019	-0.023499	-0.048981	-0.018463	0.005646	0.009155	-0.014954	0.028076	-0.000153	-0.008392	-0.034027	0.018158	0.010223	-0.009918	-0.098419	-0.050812	-0.018311	-0.13184	-0.072632	-0.062256	0.044861	-0.011444	-0.05661	-0.41473	0.045624	-0.46173	-0.79376	-0.002136	-0.025177
26.203	0.018463	0.00412	0.26062	-0.000305	0.02121	-0.066528	-0.012512	-0.005341	0.00885	-0.02594	0.02655	0.005646	-0.021667	-0.046844	0.005341	0.004578	0.00061	-0.16693	-0.28763	0.013428	-0.035095	-0.11887	-0.047607	0.037842	0.011749	-0.049591	-0.17181	0.12116	-0.29373	-0.7428	-0.00061	-0.037231
26.204	0.02533	-0.034485	0.21729	-0.001221	0.071411	-0.009155	-0.015869	0.000305	0.000305	-0.065002	0.002747	0.006866	-0.015411	-0.033875	0.004578	0.00885	0.012207	-0.21729	-0.50873	0.032654	0.031433	-0.093384	-0.042877	0.01709	-0.012512	-0.18249	0.13886	-0.42404	0.045319	-0.99411	-0.000458	-0.035248
26.205	0.00412	-0.035858	0.048828	0.003967	0.023499	0.035248	-0.016632	0.001068	0.001984	-0.024414	-0.047607	0.007629	-0.024719	-0.049744	0.027008	0.00946	0.019226	-0.13275	-0.55527	0.0354	0.078583	0.034943	-0.073853	-0.053864	0.003815	-0.18601	0.13657	-0.41046	-0.41855	-0.68573	-0.001373	-0.022888
26.206	-0.012512	0.004425	-0.046997	-0.000153	-0.023346	0.093842	-0.025635	0.006714	0.010529	-0.02533	-0.032196	0.010071	-0.011139	-0.040894	0.086517	0.004425	0.020142	-0.018768	0.034943	0.021667	0.062103	0.12451	-0.088043	-0.020905	0.000305	-0.008087	-0.1059	-0.071259	0.13107	0.50323	0.001984	-0.003967
26.207	-0.024567	-0.017853	-0.022888	0.001831	-0.003357	0.092316	-0.010681	0.007324	0	-0.03479	0.018921	0.003204	0.032806	-0.028381	0.042419	0.007324	0.019989	-0.001526	0.60059	-0.00473	-0.043793	0.073547	-0.079041	-0.039215	0.006866	0.055237	-0.23743	-0.009613	0.4567	1.3226	0.000458	0.008698
26.208	-0.024719	-0.061798	-0.022125	-0.00885	0.018768	0.088959	0.001526	0.007172	0.003967	-0.031586	0.069275	0.005188	0.086365	-0.011139	-0.024414	0.005341	0.005646	-0.11978	0.15884	-0.016937	-0.21866	-0.031891	-0.11765	-0.016022	0.003052	0.049591	-0.75104	0.16174	0.31998	1.234	0.003357	-0.002289
